<svg width="3340" height="591" viewBox="0 0 3340 591" fill="none" xmlns="http://www.w3.org/2000/svg">
<path d="M10.1769 506.095L0.223633 479.902C22.5751 472.219 41.958 462.964 58.3724 452.137C74.7867 441.66 88.407 429.961 99.2335 417.039C110.409 404.117 118.616 390.496 123.855 376.177C129.443 361.859 132.237 347.365 132.237 332.697C132.237 316.283 128.395 298.646 120.712 279.787C113.378 260.928 104.472 242.418 93.9949 224.257L118.617 211.685C125.252 223.21 131.014 234.735 135.904 246.26C141.142 257.435 145.683 268.262 149.524 278.739C153.366 288.867 156.335 298.646 158.43 308.075C163.319 325.188 171.003 338.11 181.48 346.841C192.306 355.572 207.149 359.938 226.008 359.938C230.548 359.938 233.866 361.335 235.962 364.129C238.057 366.573 239.105 369.542 239.105 373.034C239.105 376.527 237.533 379.844 234.39 382.988C231.247 386.131 227.231 387.702 222.341 387.702C207.324 387.702 194.577 385.258 184.099 380.368C173.622 375.479 165.24 368.843 158.954 360.462C153.017 352.08 148.651 342.825 145.857 332.697L156.858 336.888C156.858 358.89 152.318 378.971 143.238 397.132C134.158 415.642 122.283 432.056 107.615 446.375C93.2965 460.694 77.5806 472.743 60.4678 482.522C43.3549 492.65 26.5913 500.507 10.1769 506.095Z" fill="white"/>
<path d="M191.004 387.702L194.671 359.938C212.831 359.938 226.801 358.366 236.58 355.223C246.708 351.731 253.867 346.143 258.058 338.459C262.249 330.776 264.344 320.299 264.344 307.028C264.344 297.598 263.122 287.121 260.677 275.596C258.582 263.722 255.439 250.974 251.248 237.354C247.057 223.734 242.167 209.589 236.58 194.921L263.82 184.444C268.71 197.715 273.075 211.51 276.917 225.829C281.108 240.148 284.426 253.943 286.87 267.214C289.315 280.136 290.537 291.661 290.537 301.789C290.537 313.663 289.315 324.315 286.87 333.745C284.775 343.174 281.283 351.381 276.393 358.366C271.504 365.002 265.043 370.59 257.01 375.13C249.327 379.321 240.072 382.464 229.245 384.559C218.419 386.655 205.672 387.702 191.004 387.702ZM200.433 116.866L196.242 97.4828C205.322 95.3873 212.831 93.6412 218.768 92.2442C225.055 90.498 231.69 88.7518 238.675 87.0056L245.485 94.3396C232.214 91.8949 220.864 85.9578 211.434 76.5283C202.354 67.0988 197.814 56.4469 197.814 44.5727C197.814 35.1432 200.084 27.1106 204.624 20.475C209.513 13.4902 215.8 8.42622 223.483 5.28305C231.516 1.79064 239.897 0.0444336 248.628 0.0444336C252.819 0.0444336 257.01 0.39367 261.201 1.09214C265.741 1.79064 269.757 2.83836 273.25 4.23531L270.107 22.5705C266.614 21.5228 263.122 20.8243 259.63 20.475C256.137 19.7766 252.47 19.4273 248.628 19.4273C238.151 19.4273 230.293 21.872 225.055 26.7614C219.816 31.3015 217.197 37.064 217.197 44.0489C217.197 51.3829 219.641 57.8439 224.531 63.4317C229.42 69.0196 235.357 73.5598 242.342 77.0522C249.327 80.1953 256.137 82.2908 262.773 83.3385L241.818 85.434C251.248 82.9893 259.979 80.5446 268.011 78.0999C276.393 75.3059 283.902 72.6867 290.537 70.242L296.3 88.5771C287.918 91.7203 277.965 95.0381 266.44 98.5305C255.264 102.023 243.914 105.341 232.389 108.484C220.864 111.627 210.212 114.421 200.433 116.866Z" fill="white"/>
<path d="M348.576 385.083L338.098 11.0455H365.339L375.816 385.083H348.576Z" fill="white"/>
<path d="M413.281 505.571L407.518 478.331C428.822 475.187 448.729 470.647 467.239 464.71C485.748 458.773 501.988 450.566 515.958 440.089C529.927 429.611 540.754 416.166 548.437 399.751C556.47 383.686 560.486 363.779 560.486 340.031C560.486 328.157 559.264 316.457 556.819 304.932C554.374 293.058 550.707 282.406 545.818 272.977C540.928 263.547 534.991 256.038 528.007 250.451C521.022 244.513 512.989 241.545 503.909 241.545C495.178 241.545 486.622 245.387 478.24 253.07C469.858 260.753 463.048 270.532 457.809 282.406C452.57 293.931 449.951 305.631 449.951 317.505C449.951 327.633 452.047 336.015 456.237 342.65C460.778 349.286 467.413 354.175 476.144 357.318C485.225 360.112 495.876 361.509 508.1 361.509C520.673 361.509 532.372 359.938 543.199 356.795C554.374 353.302 563.28 349.635 569.916 345.793L572.011 369.367C564.328 374.955 554.374 379.495 542.151 382.988C530.277 386.48 517.355 388.226 503.385 388.226C492.209 388.226 481.732 387.179 471.953 385.083C462.524 382.638 454.142 378.971 446.808 374.082C439.474 368.843 433.711 362.208 429.521 354.175C425.33 345.793 423.234 335.84 423.234 324.315C423.234 311.742 425.33 298.995 429.521 286.073C433.711 273.151 439.474 261.277 446.808 250.451C454.491 239.275 463.397 230.369 473.525 223.734C484.002 217.098 495.178 213.78 507.052 213.78C519.974 213.78 531.324 217.273 541.103 224.257C551.231 231.242 559.613 240.846 566.249 253.07C573.233 264.944 578.472 278.565 581.964 293.931C585.457 309.298 587.203 325.363 587.203 342.126C587.203 371.812 580.742 398.005 567.82 420.706C554.898 443.406 535.515 461.916 509.672 476.235C483.828 490.554 451.697 500.333 413.281 505.571Z" fill="white"/>
<path d="M693.6 359.938C711.412 359.938 725.556 357.842 736.033 353.651C746.51 349.46 754.019 343.523 758.559 335.84C763.449 328.157 765.893 319.077 765.893 308.599C765.893 301.614 764.496 293.407 761.702 283.978C758.908 274.199 754.543 263.198 748.606 250.974C743.018 238.751 735.684 225.305 726.604 210.637C717.873 195.969 707.395 180.253 695.172 163.489L718.746 147.774C734.112 169.776 746.86 190.032 756.988 208.542C767.116 227.051 775.148 243.99 781.085 259.356C787.022 274.374 791.563 287.994 794.706 300.217C798.198 314.886 803.088 326.76 809.374 335.84C815.66 344.571 823.343 350.858 832.424 354.699C841.853 358.192 852.854 359.938 865.427 359.938C869.967 359.938 873.285 361.335 875.38 364.129C877.825 366.573 879.048 369.542 879.048 373.034C879.048 376.527 877.476 379.844 874.333 382.988C871.189 386.131 867.173 387.702 862.284 387.702C845.87 387.702 831.725 385.083 819.851 379.845C807.977 374.606 798.373 366.748 791.039 356.271C783.705 345.793 778.641 332.522 775.847 316.457L790.515 310.171C790.515 322.744 787.721 334.967 782.133 346.841C776.894 358.715 767.29 368.494 753.321 376.177C739.7 383.861 719.968 387.702 694.124 387.702C683.298 387.702 672.471 386.829 661.645 385.083C650.818 383.686 640.69 381.241 631.261 377.749C622.18 374.257 614.148 370.24 607.163 365.7L620.783 341.603C629.514 347.19 640.341 351.731 653.263 355.223C666.534 358.366 679.98 359.938 693.6 359.938Z" fill="white"/>
<path d="M830.607 387.702L833.75 359.938C854.355 359.938 869.023 357.668 877.754 353.128C886.485 348.587 891.724 340.904 893.47 330.078C895.216 319.251 895.74 304.408 895.042 285.549L885.088 11.0455H911.805L922.282 282.93C922.981 300.741 922.457 316.283 920.711 329.554C918.965 342.825 914.774 353.826 908.138 362.557C901.852 370.939 892.422 377.225 879.85 381.416C867.626 385.607 851.212 387.702 830.607 387.702Z" fill="white"/>
<path d="M1067.06 387.702C1042.62 387.702 1023.93 385.083 1011.01 379.845C998.09 374.606 989.184 365.7 984.295 353.128C979.405 340.206 976.437 322.918 975.389 301.265L964.912 11.0455H992.153L1002.63 289.74C1003.68 309.298 1005.6 324.141 1008.39 334.269C1011.19 344.397 1017.3 351.207 1026.73 354.699C1036.16 358.192 1050.83 359.938 1070.73 359.938C1075.27 359.938 1078.59 361.335 1080.69 364.129C1082.78 366.573 1083.83 369.542 1083.83 373.034C1083.83 376.527 1082.26 379.844 1079.11 382.988C1075.97 386.131 1071.95 387.702 1067.06 387.702Z" fill="white"/>
<path d="M1035.81 387.702L1039.48 359.938C1057.64 359.938 1071.61 358.366 1081.39 355.223C1091.52 351.731 1098.68 346.143 1102.87 338.459C1107.06 330.776 1109.15 320.299 1109.15 307.028C1109.15 297.598 1107.93 287.121 1105.49 275.596C1103.39 263.722 1100.25 250.974 1096.06 237.354C1091.87 223.734 1086.98 209.589 1081.39 194.921L1108.63 184.444C1113.52 197.715 1117.89 211.51 1121.73 225.829C1125.92 240.148 1129.24 253.943 1131.68 267.214C1134.12 280.136 1135.35 291.661 1135.35 301.789C1135.35 313.663 1134.12 324.315 1131.68 333.745C1129.58 343.174 1126.09 351.381 1121.2 358.366C1116.31 365.002 1109.85 370.59 1101.82 375.13C1094.14 379.321 1084.88 382.464 1074.06 384.559C1063.23 386.655 1050.48 387.702 1035.81 387.702ZM1090.29 479.902C1084.36 479.902 1079.47 477.981 1075.63 474.14C1071.79 470.298 1069.86 465.758 1069.86 460.519C1069.86 455.281 1071.79 450.566 1075.63 446.375C1079.47 442.533 1084.36 440.613 1090.29 440.613C1095.53 440.613 1100.07 442.533 1103.92 446.375C1107.76 450.566 1109.68 455.281 1109.68 460.519C1109.68 465.758 1107.76 470.298 1103.92 474.14C1100.07 477.981 1095.53 479.902 1090.29 479.902Z" fill="white"/>
<path d="M1504.7 387.702C1487.94 387.702 1473.1 385.607 1460.17 381.416C1447.6 377.225 1437.47 369.367 1429.79 357.842C1422.46 346.317 1418.27 329.728 1417.22 308.075L1407.79 117.39H1435.03L1443.93 297.598C1444.98 314.711 1447.6 327.808 1451.79 336.888C1455.98 345.968 1462.62 352.08 1471.7 355.223C1480.78 358.366 1492.83 359.938 1507.85 359.938C1512.74 359.938 1516.23 361.335 1518.32 364.129C1520.42 366.573 1521.47 369.542 1521.47 373.034C1521.47 376.527 1519.89 379.844 1516.75 382.988C1513.61 386.131 1509.59 387.702 1504.7 387.702ZM1431.36 331.649C1412.15 337.237 1393.29 340.031 1374.78 340.031C1356.62 339.682 1340.04 337.062 1325.02 332.173C1310.35 326.934 1298.48 319.426 1289.4 309.647C1280.66 299.519 1276.3 287.47 1276.3 273.5C1276.3 259.531 1279.97 246.085 1287.3 233.163C1294.98 220.241 1305.29 208.542 1318.21 198.064C1331.48 187.238 1346.67 178.158 1363.78 170.824C1381.25 163.489 1399.76 158.6 1419.31 156.155L1421.41 184.968C1404.64 186.365 1389.1 189.683 1374.78 194.921C1360.47 200.16 1347.89 206.795 1337.07 214.828C1326.59 222.86 1318.38 231.592 1312.45 241.021C1306.51 250.451 1303.54 259.88 1303.54 269.31C1303.54 278.041 1306.33 285.375 1311.92 291.312C1317.51 297.249 1324.84 301.789 1333.92 304.932C1343 308.075 1353.13 310.171 1364.31 311.219C1375.48 312.266 1386.66 312.266 1397.83 311.219C1409.01 310.171 1419.14 308.25 1428.22 305.456L1431.36 331.649ZM1420.88 46.1443C1415.3 46.1443 1410.58 44.2235 1406.74 40.3818C1402.9 36.5402 1400.98 31.8254 1400.98 26.2375C1400.98 20.9989 1402.9 16.4588 1406.74 12.6171C1410.58 8.42621 1415.3 6.33076 1420.88 6.33076C1426.12 6.33076 1430.66 8.42621 1434.51 12.6171C1438.35 16.4588 1440.27 20.9989 1440.27 26.2375C1440.27 31.8254 1438.35 36.5402 1434.51 40.3818C1430.66 44.2235 1426.12 46.1443 1420.88 46.1443ZM1357.5 46.1443C1351.91 46.1443 1347.19 44.2235 1343.35 40.3818C1339.51 36.5402 1337.59 31.8254 1337.59 26.2375C1337.59 20.9989 1339.51 16.4588 1343.35 12.6171C1347.19 8.42621 1351.91 6.33076 1357.5 6.33076C1363.09 6.33076 1367.63 8.42621 1371.12 12.6171C1374.96 16.4588 1376.88 20.9989 1376.88 26.2375C1376.88 31.8254 1374.96 36.5402 1371.12 40.3818C1367.28 44.2235 1362.74 46.1443 1357.5 46.1443Z" fill="white"/>
<path d="M1473.05 387.702L1476.72 359.938C1491.39 359.938 1503.61 358.715 1513.39 356.271C1523.52 353.826 1532.08 348.762 1539.06 341.079C1546.05 333.046 1551.98 321.172 1556.87 305.456C1561.76 289.74 1566.65 268.611 1571.54 242.069L1598.26 247.307C1596.51 256.737 1594.59 265.468 1592.49 273.5C1590.75 281.184 1589.35 288.518 1588.3 295.503C1587.26 302.488 1586.73 309.298 1586.73 315.933C1586.73 322.22 1587.26 328.157 1588.3 333.745C1589.7 338.983 1592.84 343.523 1597.73 347.365C1602.97 351.207 1610.83 354.35 1621.31 356.795C1632.13 358.89 1647.15 359.938 1666.36 359.938C1670.9 359.938 1674.22 361.335 1676.31 364.129C1678.41 366.573 1679.46 369.542 1679.46 373.034C1679.46 376.527 1677.88 379.844 1674.74 382.988C1671.95 386.131 1667.93 387.702 1662.69 387.702C1643.48 387.702 1627.59 386.48 1615.02 384.035C1602.8 381.241 1593.37 377.4 1586.73 372.51C1580.1 367.621 1575.38 361.509 1572.59 354.175C1570.14 346.492 1568.92 337.936 1568.92 328.506L1577.83 329.03C1572.59 341.603 1566.65 351.905 1560.02 359.938C1553.73 367.621 1546.39 373.558 1538.01 377.749C1529.98 381.591 1520.55 384.21 1509.72 385.607C1498.9 387.004 1486.67 387.702 1473.05 387.702ZM1602.97 483.569C1597.38 483.569 1592.49 481.648 1588.3 477.807C1584.46 473.965 1582.54 469.25 1582.54 463.662C1582.54 458.424 1584.46 453.709 1588.3 449.518C1592.15 445.677 1597.03 443.756 1602.97 443.756C1608.21 443.756 1612.75 445.677 1616.59 449.518C1620.43 453.709 1622.35 458.424 1622.35 463.662C1622.35 469.25 1620.43 473.965 1616.59 477.807C1612.75 481.648 1608.21 483.569 1602.97 483.569ZM1539.58 483.569C1534 483.569 1529.11 481.648 1524.92 477.807C1521.07 473.965 1519.15 469.25 1519.15 463.662C1519.15 458.424 1521.07 453.709 1524.92 449.518C1528.76 445.677 1533.65 443.756 1539.58 443.756C1544.82 443.756 1549.36 445.677 1553.2 449.518C1557.05 453.709 1558.97 458.424 1558.97 463.662C1558.97 469.25 1557.05 473.965 1553.2 477.807C1549.36 481.648 1544.82 483.569 1539.58 483.569Z" fill="white"/>
<path d="M1631.42 387.702L1635.09 359.938C1653.25 359.938 1667.22 358.366 1677 355.223C1687.12 351.731 1694.28 346.143 1698.47 338.459C1702.67 330.776 1704.76 320.299 1704.76 307.028C1704.76 297.598 1703.54 287.121 1701.09 275.596C1699 263.722 1695.86 250.974 1691.66 237.354C1687.47 223.734 1682.58 209.589 1677 194.921L1704.24 184.444C1709.13 197.715 1713.49 211.51 1717.33 225.829C1721.52 240.148 1724.84 253.943 1727.29 267.214C1729.73 280.136 1730.95 291.661 1730.95 301.789C1730.95 313.663 1729.73 324.315 1727.29 333.745C1725.19 343.174 1721.7 351.381 1716.81 358.366C1711.92 365.002 1705.46 370.59 1697.43 375.13C1689.74 379.321 1680.49 382.464 1669.66 384.559C1658.84 386.655 1646.09 387.702 1631.42 387.702ZM1685.9 479.902C1679.96 479.902 1675.08 477.981 1671.23 474.14C1667.39 470.298 1665.47 465.758 1665.47 460.519C1665.47 455.281 1667.39 450.566 1671.23 446.375C1675.08 442.533 1679.96 440.613 1685.9 440.613C1691.14 440.613 1695.68 442.533 1699.52 446.375C1703.36 450.566 1705.28 455.281 1705.28 460.519C1705.28 465.758 1703.36 470.298 1699.52 474.14C1695.68 477.981 1691.14 479.902 1685.9 479.902Z" fill="white"/>
<path d="M1737.65 506.095L1727.7 479.902C1750.05 472.219 1769.43 462.964 1785.85 452.137C1802.26 441.66 1815.88 429.961 1826.71 417.039C1837.89 404.117 1846.09 390.496 1851.33 376.177C1856.92 361.859 1859.71 347.365 1859.71 332.697C1859.71 316.283 1855.87 298.646 1848.19 279.787C1840.85 260.928 1831.95 242.418 1821.47 224.257L1846.09 211.685C1852.73 223.21 1858.49 234.735 1863.38 246.26C1868.62 257.435 1873.16 268.262 1877 278.739C1880.84 288.867 1883.81 298.646 1885.91 308.075C1890.8 325.188 1898.48 338.11 1908.96 346.841C1919.78 355.572 1934.63 359.938 1953.48 359.938C1958.02 359.938 1961.34 361.335 1963.44 364.129C1965.53 366.573 1966.58 369.542 1966.58 373.034C1966.58 376.527 1965.01 379.844 1961.87 382.988C1958.72 386.131 1954.71 387.702 1949.82 387.702C1934.8 387.702 1922.05 385.258 1911.58 380.368C1901.1 375.479 1892.72 368.843 1886.43 360.462C1880.49 352.08 1876.13 342.825 1873.33 332.697L1884.34 336.888C1884.34 358.89 1879.79 378.971 1870.71 397.132C1861.63 415.642 1849.76 432.056 1835.09 446.375C1820.77 460.694 1805.06 472.743 1787.94 482.522C1770.83 492.65 1754.07 500.507 1737.65 506.095Z" fill="white"/>
<path d="M1918.48 387.702L1922.15 359.938C1942.05 359.938 1961.26 357.493 1979.77 352.604C1998.28 347.365 2015.39 340.555 2031.11 332.173C2047.18 323.791 2060.97 314.362 2072.5 303.884C2084.37 293.407 2093.45 282.581 2099.74 271.405C2106.37 260.229 2109.69 249.577 2109.69 239.449C2109.69 234.56 2107.94 229.321 2104.45 223.734C2101.31 218.146 2095.55 213.606 2087.16 210.113C2079.13 206.272 2068.13 204.351 2054.16 204.351C2041.94 204.351 2030.24 206.097 2019.06 209.589C2007.89 212.732 1998.11 216.574 1989.73 221.114C1981.69 225.654 1975.76 229.845 1971.91 233.687C1982.04 242.767 1991.82 252.022 2001.25 261.452C2010.68 270.881 2019.93 280.66 2029.02 290.788C2038.44 300.916 2047.7 311.568 2056.78 322.744C2066.21 330.776 2075.99 337.237 2086.12 342.126C2096.24 347.016 2106.72 350.857 2117.55 353.651C2128.72 356.096 2139.72 357.842 2150.55 358.89C2161.38 359.588 2172.2 359.938 2183.03 359.938C2187.92 359.938 2191.41 361.335 2193.51 364.129C2195.6 366.573 2196.65 369.542 2196.65 373.034C2196.65 376.527 2195.08 379.844 2191.94 382.988C2188.79 386.131 2184.78 387.702 2179.89 387.702C2162.77 387.702 2145.66 386.305 2128.55 383.512C2111.44 380.718 2095.2 375.828 2079.83 368.843C2064.46 361.859 2050.32 352.254 2037.4 340.031C2030.06 330.252 2021.86 320.299 2012.78 310.171C2003.69 300.043 1994.27 290.089 1984.49 280.311C1975.06 270.532 1965.45 261.801 1955.67 254.118C1954.28 253.07 1952.88 251.149 1951.48 248.355C1950.44 245.561 1949.56 242.767 1948.86 239.973C1948.17 236.83 1947.82 234.56 1947.82 233.163C1947.82 228.623 1950.78 223.21 1956.72 216.923C1963.01 210.288 1971.39 204.001 1981.87 198.064C1992.34 192.127 2004.22 187.238 2017.49 183.396C2030.76 179.205 2044.38 177.11 2058.35 177.11C2075.81 177.11 2090.31 179.729 2101.83 184.968C2113.36 189.857 2122.09 196.493 2128.02 204.875C2133.96 213.256 2136.93 222.511 2136.93 232.639C2136.93 246.26 2133.09 260.404 2125.41 275.072C2118.07 289.391 2107.59 303.361 2093.97 316.981C2080.7 330.252 2064.81 342.301 2046.3 353.128C2028.14 363.605 2008.24 371.987 1986.58 378.273C1964.93 384.559 1942.23 387.702 1918.48 387.702Z" fill="white"/>
<path d="M2148.47 387.702L2151.61 359.938C2172.22 359.938 2186.88 357.668 2195.62 353.128C2204.35 348.587 2209.59 340.904 2211.33 330.078C2213.08 319.251 2213.6 304.408 2212.9 285.549L2202.95 11.0455H2229.67L2240.14 282.93C2240.84 300.741 2240.32 316.283 2238.57 329.554C2236.83 342.825 2232.64 353.826 2226 362.557C2219.71 370.939 2210.28 377.225 2197.71 381.416C2185.49 385.607 2169.07 387.702 2148.47 387.702Z" fill="white"/>
<path d="M2293.25 385.083L2282.77 11.0455H2310.01L2320.49 385.083H2293.25Z" fill="white"/>
<path d="M2489.06 590.961C2481.73 563.371 2475.44 536.829 2470.21 511.334C2464.97 485.839 2460.95 462.789 2458.16 442.184C2455.36 421.928 2453.97 405.863 2453.97 393.989C2453.97 368.843 2457.98 346.143 2466.01 325.887C2474.05 305.281 2484.35 287.296 2496.92 271.929C2509.84 256.562 2523.64 243.64 2538.31 233.163C2552.98 222.337 2566.95 214.304 2580.22 209.065C2593.84 203.478 2605.36 200.684 2614.79 200.684C2622.82 200.684 2629.63 202.954 2635.22 207.494C2640.81 212.034 2646.4 220.59 2651.99 233.163C2657.92 245.736 2665.08 264.246 2673.46 288.692C2680.1 307.552 2686.39 322.22 2692.32 332.697C2698.26 342.825 2705.24 349.984 2713.28 354.175C2721.31 358.017 2731.44 359.938 2743.66 359.938C2748.2 359.938 2751.52 361.335 2753.61 364.129C2755.71 366.573 2756.76 369.542 2756.76 373.034C2756.76 376.527 2755.19 379.844 2752.04 382.988C2748.9 386.131 2745.06 387.702 2740.52 387.702C2723.75 387.702 2709.96 384.385 2699.13 377.749C2688.31 371.113 2680.1 362.732 2674.51 352.604L2682.89 343.698C2681.5 355.572 2677.83 365.002 2671.89 371.987C2666.3 378.971 2659.67 384.035 2651.99 387.179C2644.3 390.322 2636.27 391.893 2627.89 391.893C2619.51 391.893 2610.08 390.147 2599.6 386.655C2589.47 383.512 2578.99 378.273 2568.17 370.939C2557.34 363.605 2546.86 353.651 2536.74 341.079C2526.61 328.157 2517.35 312.441 2508.97 293.931L2513.69 295.503C2502.86 309.822 2494.83 325.712 2489.59 343.174C2484.35 360.287 2481.73 377.924 2481.73 396.084C2481.73 406.212 2482.6 418.61 2484.35 433.278C2486.45 448.296 2489.06 464.361 2492.21 481.474C2495.7 498.587 2499.37 515.874 2503.21 533.336C2507.4 551.147 2511.59 568.26 2515.78 584.675L2489.06 590.961ZM2629.46 364.652C2638.19 364.652 2645 362.906 2649.89 359.414C2655.13 355.572 2658.45 350.508 2659.84 344.222C2661.24 337.936 2660.54 330.776 2657.75 322.744C2651.46 304.583 2646.05 289.566 2641.51 277.691C2637.32 265.817 2633.48 256.562 2629.98 249.927C2626.84 242.942 2623.52 238.052 2620.03 235.259C2616.89 232.115 2613.22 230.544 2609.03 230.544C2604.49 230.544 2598.9 231.766 2592.27 234.211C2585.63 236.306 2578.65 239.449 2571.31 243.64C2563.98 247.831 2556.47 252.895 2548.78 258.832C2541.45 264.42 2534.64 271.056 2528.35 278.739L2528.88 273.5C2537.26 294.455 2547.21 311.742 2558.74 325.363C2570.61 338.634 2582.84 348.587 2595.41 355.223C2607.98 361.509 2619.33 364.652 2629.46 364.652Z" fill="white"/>
<path d="M2709.29 387.702L2712.95 359.938C2727.62 359.938 2739.85 358.715 2749.62 356.271C2759.75 353.826 2768.31 348.762 2775.29 341.079C2782.28 333.046 2788.22 321.172 2793.1 305.456C2797.99 289.74 2802.88 268.611 2807.77 242.069L2834.49 247.307C2832.74 256.737 2830.82 265.468 2828.73 273.5C2826.98 281.184 2825.58 288.518 2824.54 295.503C2823.49 302.488 2822.97 309.298 2822.97 315.933C2822.97 322.22 2823.49 328.157 2824.54 333.745C2825.93 338.983 2829.08 343.523 2833.97 347.365C2839.2 351.207 2847.06 354.35 2857.54 356.795C2868.37 358.89 2883.38 359.938 2902.59 359.938C2907.13 359.938 2910.45 361.335 2912.55 364.129C2914.64 366.573 2915.69 369.542 2915.69 373.034C2915.69 376.527 2914.12 379.844 2910.97 382.988C2908.18 386.131 2904.16 387.702 2898.93 387.702C2879.72 387.702 2863.83 386.48 2851.25 384.035C2839.03 381.241 2829.6 377.4 2822.97 372.51C2816.33 367.621 2811.61 361.509 2808.82 354.175C2806.38 346.492 2805.15 337.936 2805.15 328.506L2814.06 329.03C2808.82 341.603 2802.88 351.905 2796.25 359.938C2789.96 367.621 2782.63 373.558 2774.25 377.749C2766.21 381.591 2756.78 384.21 2745.96 385.607C2735.13 387.004 2722.91 387.702 2709.29 387.702ZM2839.2 483.569C2833.62 483.569 2828.73 481.648 2824.54 477.807C2820.69 473.965 2818.77 469.25 2818.77 463.662C2818.77 458.424 2820.69 453.709 2824.54 449.518C2828.38 445.677 2833.27 443.756 2839.2 443.756C2844.44 443.756 2848.98 445.677 2852.83 449.518C2856.67 453.709 2858.59 458.424 2858.59 463.662C2858.59 469.25 2856.67 473.965 2852.83 477.807C2848.98 481.648 2844.44 483.569 2839.2 483.569ZM2775.82 483.569C2770.23 483.569 2765.34 481.648 2761.15 477.807C2757.31 473.965 2755.39 469.25 2755.39 463.662C2755.39 458.424 2757.31 453.709 2761.15 449.518C2764.99 445.677 2769.88 443.756 2775.82 443.756C2781.06 443.756 2785.6 445.677 2789.44 449.518C2793.28 453.709 2795.2 458.424 2795.2 463.662C2795.2 469.25 2793.28 473.965 2789.44 477.807C2785.6 481.648 2781.06 483.569 2775.82 483.569Z" fill="white"/>
<path d="M2867.65 387.702L2870.8 359.938C2892.1 359.938 2907.12 357.144 2915.85 351.556C2924.58 345.619 2929.64 336.539 2931.04 324.315C2932.79 312.092 2933.31 296.55 2932.61 277.691L2923.71 11.0455H2951.47L2959.85 276.644C2960.9 298.297 2963.52 315.235 2967.71 327.458C2972.25 339.332 2978.89 347.714 2987.62 352.604C2996.7 357.493 3007.87 359.938 3021.14 359.938C3026.03 359.938 3029.53 361.335 3031.62 364.129C3033.72 366.573 3034.77 369.542 3034.77 373.034C3034.77 376.527 3033.19 379.844 3030.05 382.988C3026.91 386.131 3022.89 387.702 3018 387.702C3002.98 387.702 2990.59 385.258 2980.81 380.368C2971.38 375.13 2964.04 368.32 2958.81 359.938C2953.57 351.556 2949.9 342.825 2947.8 333.745L2956.19 334.269C2953.39 345.444 2948.68 355.048 2942.04 363.081C2935.41 370.764 2925.98 376.876 2913.75 381.416C2901.88 385.607 2886.51 387.702 2867.65 387.702Z" fill="white"/>
<path d="M2986.63 387.702L2990.29 359.938C3010.2 359.938 3029.41 357.493 3047.92 352.604C3066.43 347.365 3083.54 340.555 3099.26 332.173C3115.32 323.791 3129.12 314.362 3140.64 303.884C3152.52 293.407 3161.6 282.581 3167.88 271.405C3174.52 260.229 3177.84 249.577 3177.84 239.449C3177.84 234.56 3176.09 229.321 3172.6 223.734C3169.45 218.146 3163.69 213.606 3155.31 210.113C3147.28 206.272 3136.28 204.351 3122.31 204.351C3110.08 204.351 3098.38 206.097 3087.21 209.589C3076.03 212.732 3066.25 216.574 3057.87 221.114C3049.84 225.654 3043.9 229.845 3040.06 233.687C3050.19 242.767 3059.97 252.022 3069.4 261.452C3078.83 270.881 3088.08 280.66 3097.16 290.788C3106.59 300.916 3115.85 311.568 3124.93 322.744C3134.36 330.776 3144.14 337.237 3154.26 342.126C3164.39 347.016 3174.87 350.857 3185.69 353.651C3196.87 356.096 3207.87 357.842 3218.7 358.89C3229.52 359.588 3240.35 359.938 3251.18 359.938C3256.07 359.938 3259.56 361.335 3261.65 364.129C3263.75 366.573 3264.8 369.542 3264.8 373.034C3264.8 376.527 3263.23 379.844 3260.08 382.988C3256.94 386.131 3252.92 387.702 3248.03 387.702C3230.92 387.702 3213.81 386.305 3196.7 383.512C3179.58 380.718 3163.34 375.828 3147.98 368.843C3132.61 361.859 3118.47 352.254 3105.54 340.031C3098.21 330.252 3090 320.299 3080.92 310.171C3071.84 300.043 3062.41 290.089 3052.63 280.311C3043.2 270.532 3033.6 261.801 3023.82 254.118C3022.42 253.07 3021.03 251.149 3019.63 248.355C3018.58 245.561 3017.71 242.767 3017.01 239.973C3016.31 236.83 3015.96 234.56 3015.96 233.163C3015.96 228.623 3018.93 223.21 3024.87 216.923C3031.16 210.288 3039.54 204.001 3050.01 198.064C3060.49 192.127 3072.37 187.238 3085.64 183.396C3098.91 179.205 3112.53 177.11 3126.5 177.11C3143.96 177.11 3158.45 179.729 3169.98 184.968C3181.5 189.857 3190.23 196.493 3196.17 204.875C3202.11 213.256 3205.08 222.511 3205.08 232.639C3205.08 246.26 3201.24 260.404 3193.55 275.072C3186.22 289.391 3175.74 303.361 3162.12 316.981C3148.85 330.252 3132.96 342.301 3114.45 353.128C3096.29 363.605 3076.38 371.987 3054.73 378.273C3033.08 384.559 3010.38 387.702 2986.63 387.702Z" fill="white"/>
<path d="M3216.61 387.702L3220.28 359.938C3241.93 359.938 3258.52 358.541 3270.05 355.747C3281.57 352.604 3289.43 347.19 3293.62 339.507C3298.16 331.824 3300.43 320.997 3300.43 307.028C3300.43 297.598 3299.21 287.121 3296.77 275.596C3294.67 263.722 3291.53 250.974 3287.34 237.354C3283.15 223.734 3278.26 209.589 3272.67 194.921L3299.91 184.444C3304.8 197.715 3309.16 211.51 3313.01 225.829C3317.2 240.148 3320.51 253.943 3322.96 267.214C3325.4 280.136 3326.63 291.661 3326.63 301.789C3326.63 316.806 3324.7 329.728 3320.86 340.555C3317.37 351.381 3311.26 360.287 3302.53 367.272C3294.15 374.257 3282.8 379.495 3268.48 382.988C3254.51 386.131 3237.22 387.702 3216.61 387.702ZM3320.34 116.342C3314.75 116.342 3309.86 114.421 3305.67 110.579C3301.83 106.738 3299.91 102.023 3299.91 96.4351C3299.91 91.1965 3301.83 86.6563 3305.67 82.8147C3309.86 78.6237 3314.75 76.5283 3320.34 76.5283C3325.58 76.5283 3330.12 78.6237 3333.96 82.8147C3337.8 86.6563 3339.72 91.1965 3339.72 96.4351C3339.72 102.023 3337.8 106.738 3333.96 110.579C3330.12 114.421 3325.58 116.342 3320.34 116.342ZM3256.95 116.342C3251.36 116.342 3246.65 114.421 3242.81 110.579C3238.97 106.738 3237.05 102.023 3237.05 96.4351C3237.05 91.1965 3238.97 86.6563 3242.81 82.8147C3246.65 78.6237 3251.36 76.5283 3256.95 76.5283C3262.19 76.5283 3266.73 78.6237 3270.57 82.8147C3274.41 86.6563 3276.34 91.1965 3276.34 96.4351C3276.34 102.023 3274.41 106.738 3270.57 110.579C3266.73 114.421 3262.19 116.342 3256.95 116.342Z" fill="white"/>
</svg>
