<svg width="4157" height="551" viewBox="0 0 4157 551" fill="none" xmlns="http://www.w3.org/2000/svg">
<path d="M676.896 461.462V83.8028H718.978V420.459H900.254V461.462H676.896Z" fill="#060818"/>
<path d="M1047.47 466.857C1019.42 466.857 994.422 460.742 972.482 448.513C950.901 436.285 933.997 419.2 921.768 397.26C909.539 375.32 903.424 350.142 903.424 321.728C903.424 299.788 906.841 280.006 913.675 262.382C920.509 244.398 930.04 228.752 942.269 215.444C954.858 202.136 969.784 191.885 987.049 184.692C1004.31 177.139 1023.02 173.362 1043.16 173.362C1062.22 173.362 1079.49 176.779 1094.95 183.613C1110.78 190.447 1124.26 199.978 1135.41 212.207C1146.92 224.076 1155.56 238.283 1161.31 254.828C1167.07 271.373 1169.58 289.537 1168.86 309.319L1168.32 328.202H933.637L927.702 294.213H1137.57L1127.86 303.385V290.436C1127.14 277.488 1123.37 265.079 1116.53 253.21C1109.7 240.981 1099.99 231.09 1087.4 223.537C1075.17 215.983 1060.42 212.207 1043.16 212.207C1023.02 212.207 1005.57 216.343 990.825 224.616C976.079 232.529 964.749 244.398 956.836 260.223C948.923 276.049 944.967 295.652 944.967 319.03C944.967 341.33 949.283 360.753 957.915 377.298C966.547 393.483 978.776 406.072 994.602 415.064C1010.79 424.056 1030.21 428.552 1052.87 428.552C1066.18 428.552 1079.31 426.393 1092.25 422.077C1105.56 417.402 1120.13 408.41 1135.95 395.102L1157 424.235C1148.72 432.508 1138.83 439.881 1127.32 446.355C1115.81 452.47 1103.22 457.505 1089.56 461.462C1075.89 465.059 1061.86 466.857 1047.47 466.857Z" fill="#060818"/>
<path d="M1304.03 466.857C1279.57 466.857 1257.45 460.563 1237.67 447.974C1217.88 435.026 1202.24 417.581 1190.73 395.641C1179.22 373.341 1173.46 348.164 1173.46 320.109C1173.46 291.695 1179.4 266.518 1191.27 244.578C1203.14 222.637 1218.96 205.373 1238.74 192.784C1258.89 180.196 1281.37 173.901 1306.18 173.901C1320.93 173.901 1334.6 176.059 1347.19 180.376C1359.77 184.692 1370.92 190.806 1380.64 198.719C1390.71 206.272 1398.98 215.264 1405.45 225.695C1412.29 235.766 1416.96 246.736 1419.48 258.605L1407.61 252.67L1409.23 179.836H1449.69V461.462H1408.69V392.404L1419.48 385.39C1416.96 396.181 1412.11 406.611 1404.91 416.682C1397.72 426.393 1388.91 435.026 1378.48 442.579C1368.41 450.132 1356.9 456.067 1343.95 460.383C1331.36 464.699 1318.05 466.857 1304.03 466.857ZM1313.2 428.012C1331.9 428.012 1348.62 423.516 1363.37 414.524C1378.12 405.173 1389.63 392.404 1397.9 376.219C1406.53 359.674 1410.85 340.971 1410.85 320.109C1410.85 299.248 1406.53 280.725 1397.9 264.54C1389.63 248.354 1378.12 235.586 1363.37 226.234C1348.62 216.883 1331.9 212.207 1313.2 212.207C1294.13 212.207 1277.23 216.883 1262.48 226.234C1248.1 235.586 1236.59 248.354 1227.95 264.54C1219.68 280.725 1215.54 299.248 1215.54 320.109C1215.54 340.611 1219.68 359.134 1227.95 375.679C1236.23 391.865 1247.74 404.633 1262.48 413.985C1277.23 423.336 1294.13 428.012 1313.2 428.012Z" fill="#060818"/>
<path d="M1496.15 461.462V179.836H1536.62L1537.7 254.828L1533.38 244.578C1537.34 231.989 1543.63 220.3 1552.26 209.509C1561.26 198.719 1571.87 190.087 1584.1 183.613C1596.32 177.139 1609.81 173.901 1624.56 173.901C1630.67 173.901 1636.43 174.441 1641.82 175.52C1647.22 176.239 1651.71 177.318 1655.31 178.757L1643.98 224.076C1639.31 221.918 1634.45 220.479 1629.41 219.76C1624.74 218.681 1620.24 218.142 1615.93 218.142C1603.7 218.142 1592.73 220.3 1583.02 224.616C1573.31 228.932 1565.03 235.046 1558.2 242.959C1551.36 250.512 1546.15 259.324 1542.55 269.395C1538.96 279.466 1537.16 290.256 1537.16 301.766V461.462H1496.15Z" fill="#060818"/>
<path d="M1665.05 461.462V179.836H1704.97L1706.59 238.643L1700.12 241.341C1703.71 229.112 1710.73 217.962 1721.16 207.891C1731.59 197.82 1744 189.727 1758.38 183.613C1773.13 177.139 1788.24 173.901 1803.7 173.901C1824.56 173.901 1842.01 178.038 1856.04 186.31C1870.06 194.583 1880.67 207.351 1887.87 224.616C1895.06 241.88 1898.66 263.82 1898.66 290.436V461.462H1857.65V292.594C1857.65 273.891 1855.14 258.605 1850.1 246.736C1845.42 234.507 1838.05 225.515 1827.98 219.76C1817.91 214.005 1805.5 211.308 1790.75 211.667C1778.53 211.667 1767.2 213.825 1756.76 218.142C1746.33 222.098 1737.34 227.673 1729.79 234.866C1722.24 242.06 1716.3 250.332 1711.99 259.684C1707.67 269.036 1705.51 279.106 1705.51 289.897V461.462H1685.55C1683.03 461.462 1680.15 461.462 1676.92 461.462C1673.68 461.462 1669.72 461.462 1665.05 461.462Z" fill="#060818"/>
<path d="M2031.47 461.462L1917.63 83.8028H1962.95L2035.79 333.058C2038.66 341.69 2041 349.962 2042.8 357.875C2044.96 365.428 2046.76 372.802 2048.19 379.995C2049.63 386.829 2051.07 393.843 2052.51 401.036C2053.95 407.87 2055.39 415.064 2056.83 422.617L2047.65 422.077C2052.33 405.532 2056.11 392.404 2058.98 382.693C2062.22 372.982 2065.28 364.349 2068.16 356.796C2071.03 349.243 2074.27 340.611 2077.87 330.9L2141.53 170.664H2180.91L2245.12 332.518C2249.43 342.589 2253.21 352.121 2256.45 361.112C2259.68 370.104 2262.74 379.276 2265.62 388.628C2268.86 397.979 2271.91 408.41 2274.79 419.919L2266.16 421.538C2267.96 412.546 2269.39 405.173 2270.47 399.418C2271.55 393.663 2272.63 388.628 2273.71 384.311C2274.79 379.636 2275.87 375.14 2276.95 370.824C2278.03 366.148 2279.47 360.753 2281.26 354.638C2283.06 348.164 2285.4 340.071 2288.28 330.36L2361.11 83.8028H2406.43L2291.51 461.462H2256.45L2154.48 218.681L2164.19 220.3L2066 461.462H2031.47Z" fill="#060818"/>
<path d="M2437.23 461.462V179.836H2477.69V461.462H2437.23ZM2457.19 118.871C2447.12 118.871 2439.38 116.353 2433.99 111.318C2428.95 105.923 2426.44 98.7293 2426.44 89.7375C2426.44 80.7456 2429.13 73.5521 2434.53 68.1569C2439.92 62.7618 2447.48 60.0643 2457.19 60.0643C2466.9 60.0643 2474.45 62.7618 2479.85 68.1569C2485.24 73.1924 2487.94 80.3859 2487.94 89.7375C2487.94 98.3697 2485.24 105.383 2479.85 110.778C2474.45 116.174 2466.9 118.871 2457.19 118.871Z" fill="#060818"/>
<path d="M2572.53 461.462V105.923H2612.99V461.462H2572.53ZM2508.87 218.681V179.836H2684.21V218.681H2508.87Z" fill="#060818"/>
<path d="M2701.52 461.462V62.2223H2741.99V241.341L2733.89 249.433C2737.85 234.687 2745.22 221.738 2756.01 210.588C2766.8 199.079 2779.39 190.087 2793.78 183.613C2808.53 177.139 2823.45 173.901 2838.56 173.901C2860.14 173.901 2878.12 178.038 2892.51 186.31C2906.9 194.583 2917.51 207.351 2924.34 224.616C2931.54 241.88 2935.13 263.82 2935.13 290.436V461.462H2894.13V292.594C2894.13 273.891 2891.61 258.605 2886.58 246.736C2881.9 234.507 2874.53 225.515 2864.46 219.76C2854.39 214.005 2841.8 211.308 2826.69 211.667C2814.82 211.667 2803.67 213.825 2793.24 218.142C2782.81 222.098 2773.82 227.673 2766.26 234.866C2758.71 242.06 2752.78 250.332 2748.46 259.684C2744.14 269.036 2741.99 279.106 2741.99 289.897V461.462H2722.02C2719.51 461.462 2716.63 461.462 2713.39 461.462C2710.16 461.462 2706.2 461.462 2701.52 461.462Z" fill="#060818"/>
<path d="M3152.65 466.857C3125.67 466.857 3100.86 462.181 3078.2 452.83C3055.54 443.118 3035.93 429.631 3019.39 412.366C3002.84 394.742 2989.9 374.061 2980.54 350.322C2971.55 326.584 2967.06 300.687 2967.06 272.632C2967.06 244.937 2971.55 219.58 2980.54 196.561C2989.9 173.182 3003.02 152.86 3019.93 135.596C3036.83 117.972 3056.44 104.484 3078.74 95.1326C3101.04 85.781 3125.49 81.1052 3152.11 81.1052C3169.73 81.1052 3187.18 83.9827 3204.44 89.7375C3221.71 95.1326 3237.53 102.686 3251.92 112.397C3266.67 122.108 3278.71 133.258 3288.07 145.847L3258.93 176.06C3249.94 165.269 3239.51 155.918 3227.64 148.005C3216.13 140.092 3203.9 133.978 3190.95 129.661C3178.01 125.345 3165.06 123.187 3152.11 123.187C3131.97 123.187 3113.08 126.964 3095.46 134.517C3078.2 141.711 3063.27 151.961 3050.68 165.269C3038.09 178.577 3028.2 194.403 3021.01 212.746C3014.17 231.09 3010.76 251.052 3010.76 272.632C3010.76 294.932 3014.17 315.434 3021.01 334.137C3028.2 352.84 3038.27 369.025 3051.22 382.693C3064.53 396.001 3079.99 406.431 3097.62 413.985C3115.6 421.178 3135.56 424.775 3157.5 424.775C3170.45 424.775 3183.4 422.977 3196.35 419.38C3209.3 415.423 3221.17 410.028 3231.96 403.194C3242.75 396.361 3251.92 388.628 3259.47 379.995L3281.05 415.064C3272.78 425.135 3261.63 434.126 3247.6 442.039C3233.94 449.593 3218.83 455.707 3202.28 460.383C3185.74 464.699 3169.19 466.857 3152.65 466.857Z" fill="#060818"/>
<path d="M3323.02 461.462V179.836H3363.48V461.462H3323.02ZM3342.98 118.871C3332.91 118.871 3325.17 116.353 3319.78 111.318C3314.74 105.923 3312.23 98.7293 3312.23 89.7375C3312.23 80.7456 3314.92 73.5521 3320.32 68.1569C3325.71 62.7618 3333.27 60.0643 3342.98 60.0643C3352.69 60.0643 3360.24 62.7618 3365.64 68.1569C3371.03 73.1924 3373.73 80.3859 3373.73 89.7375C3373.73 98.3697 3371.03 105.383 3365.64 110.778C3360.24 116.174 3352.69 118.871 3342.98 118.871Z" fill="#060818"/>
<path d="M3419.48 461.462V179.836H3459.94L3461.02 254.828L3456.7 244.578C3460.66 231.989 3466.95 220.3 3475.59 209.509C3484.58 198.719 3495.19 190.087 3507.42 183.613C3519.65 177.139 3533.13 173.901 3547.88 173.901C3553.99 173.901 3559.75 174.441 3565.14 175.52C3570.54 176.239 3575.04 177.318 3578.63 178.757L3567.3 224.076C3562.63 221.918 3557.77 220.479 3552.74 219.76C3548.06 218.681 3543.56 218.142 3539.25 218.142C3527.02 218.142 3516.05 220.3 3506.34 224.616C3496.63 228.932 3488.35 235.046 3481.52 242.959C3474.69 250.512 3469.47 259.324 3465.87 269.395C3462.28 279.466 3460.48 290.256 3460.48 301.766V461.462H3419.48Z" fill="#060818"/>
<path d="M3694.94 466.857C3668.33 466.857 3644.59 460.563 3623.73 447.974C3602.87 435.026 3586.32 417.581 3574.09 395.641C3562.22 373.341 3556.29 348.164 3556.29 320.109C3556.29 292.055 3562.22 267.057 3574.09 245.117C3586.32 222.817 3602.87 205.373 3623.73 192.784C3644.59 180.196 3668.51 173.901 3695.48 173.901C3719.58 173.901 3741.52 178.757 3761.3 188.468C3781.09 197.82 3796.91 210.948 3808.78 227.853L3785.04 256.986C3778.21 247.995 3769.94 240.082 3760.22 233.248C3750.87 226.414 3740.62 221.199 3729.47 217.602C3718.68 213.646 3707.89 211.667 3697.1 211.667C3678.04 211.667 3660.95 216.523 3645.85 226.234C3630.74 235.586 3618.69 248.354 3609.7 264.54C3601.07 280.725 3596.75 299.248 3596.75 320.109C3596.75 340.971 3601.07 359.674 3609.7 376.219C3618.69 392.404 3630.74 405.173 3645.85 414.524C3660.95 423.876 3677.86 428.552 3696.56 428.552C3707.35 428.552 3717.96 426.933 3728.39 423.696C3738.82 420.099 3748.71 415.064 3758.07 408.59C3767.42 402.115 3776.05 394.023 3783.96 384.311L3807.7 413.445C3795.47 429.631 3779.11 442.579 3758.61 452.29C3738.1 462.001 3716.88 466.857 3694.94 466.857Z" fill="#060818"/>
<path d="M3828.94 461.462V62.2223H3869.4V461.462H3828.94Z" fill="#060818"/>
<path d="M4035.49 466.857C4007.44 466.857 3982.44 460.742 3960.5 448.513C3938.92 436.285 3922.01 419.2 3909.78 397.26C3897.55 375.32 3891.44 350.142 3891.44 321.728C3891.44 299.788 3894.86 280.006 3901.69 262.382C3908.52 244.398 3918.06 228.752 3930.28 215.444C3942.87 202.136 3957.8 191.885 3975.06 184.692C3992.33 177.139 4011.03 173.362 4031.17 173.362C4050.24 173.362 4067.5 176.779 4082.97 183.613C4098.79 190.447 4112.28 199.978 4123.43 212.207C4134.94 224.076 4143.57 238.283 4149.33 254.828C4155.08 271.373 4157.6 289.537 4156.88 309.319L4156.34 328.202H3921.65L3915.72 294.213H4125.59L4115.88 303.385V290.436C4115.16 277.488 4111.38 265.079 4104.55 253.21C4097.71 240.981 4088 231.09 4075.41 223.537C4063.18 215.983 4048.44 212.207 4031.17 212.207C4011.03 212.207 3993.59 216.343 3978.84 224.616C3964.09 232.529 3952.76 244.398 3944.85 260.223C3936.94 276.049 3932.98 295.652 3932.98 319.03C3932.98 341.33 3937.3 360.753 3945.93 377.298C3954.56 393.483 3966.79 406.072 3982.62 415.064C3998.8 424.056 4018.23 428.552 4040.88 428.552C4054.19 428.552 4067.32 426.393 4080.27 422.077C4093.58 417.402 4108.14 408.41 4123.97 395.102L4145.01 424.235C4136.74 432.508 4126.85 439.881 4115.34 446.355C4103.83 452.47 4091.24 457.505 4077.57 461.462C4063.9 465.059 4049.88 466.857 4035.49 466.857Z" fill="#060818"/>
<path fill-rule="evenodd" clip-rule="evenodd" d="M270.108 0.0519348C209.727 1.21164 154.103 21.796 109.225 55.8156L138.161 84.7524C175.436 57.8686 220.906 41.6407 270.108 40.5326V0.0519348ZM313.269 43.4899V2.56718C361.116 9.12618 405.048 27.9704 441.781 55.8156L412.844 84.7523C383.898 63.8752 350.01 49.4242 313.269 43.4899ZM470.005 280.897C468.971 318.922 457.028 354.223 437.194 383.785L407.878 354.469C420.819 332.819 428.6 307.729 429.522 280.897H470.005ZM313.269 466.423V424.961C338.856 418.515 361.9 405.671 380.599 388.229L409.224 416.854C383.058 441.618 350.02 459.194 313.269 466.423ZM270.108 429.529C231.618 428.205 196.713 412.767 170.407 388.229L141.781 416.855C175.431 448.701 220.447 468.66 270.108 470.012V429.529ZM466.414 237.736H424.951C418.505 212.152 405.661 189.112 388.221 170.414L416.847 141.789C441.609 167.953 459.184 200.989 466.414 237.736ZM354.462 143.135C341.795 135.563 327.951 129.758 313.269 126.06V84.5976C338.943 89.6475 362.804 99.7472 383.777 113.819L354.462 143.135ZM270.108 121.491C243.279 122.414 218.191 130.195 196.544 143.135L167.228 113.819C196.788 93.9856 232.086 82.0434 270.108 81.0083V121.491ZM134.158 141.788L162.784 170.414C145.344 189.111 132.5 212.152 126.054 237.736H84.5914C91.821 200.988 109.396 167.953 134.158 141.788ZM81.0004 280.897H121.483C122.405 307.729 130.186 332.82 143.127 354.469L113.812 383.785C93.9767 354.224 82.034 318.922 81.0004 280.897ZM113.16 445.476C154.146 484.635 209.275 509.118 270.108 510.489V550.969C198.1 549.586 132.856 520.577 84.5357 474.1L113.16 445.476ZM466.47 474.1C425.504 513.504 372.373 540.352 313.269 548.454V507.531C361.194 499.791 404.266 477.559 437.846 445.476L466.47 474.1ZM84.7446 412.852L55.8078 441.789C21.7867 396.908 1.20203 341.281 0.0440384 280.897H40.5246C41.6312 330.103 57.8593 375.576 84.7446 412.852ZM43.4835 237.736H2.56056C10.6641 178.636 37.5116 125.508 76.9135 84.5435L105.538 113.168C73.4565 146.746 51.2255 189.815 43.4835 237.736Z" fill="#060818"/>
<path d="M474.092 84.5434L445.468 113.168C477.549 146.746 499.78 189.815 507.522 237.736H548.445C540.342 178.636 513.494 125.508 474.092 84.5434Z" fill="#060818"/>
<path d="M550.962 280.897H510.481C509.375 330.103 493.146 375.576 466.261 412.852L495.198 441.789C529.219 396.908 549.804 341.281 550.962 280.897Z" fill="#060818"/>
</svg>
