<svg width="500" height="500" viewBox="0 0 500 500" fill="none" xmlns="http://www.w3.org/2000/svg">
<path fill-rule="evenodd" clip-rule="evenodd" d="M247.357 115.025C217.769 115.594 190.513 125.68 168.522 142.35L182.701 156.53C200.966 143.356 223.247 135.405 247.357 134.862V115.025ZM268.506 136.311V116.258C291.952 119.472 313.479 128.706 331.479 142.35L317.3 156.53C303.116 146.3 286.51 139.219 268.506 136.311ZM345.309 252.644C344.803 271.276 338.95 288.574 329.231 303.06L314.866 288.695C321.207 278.086 325.02 265.792 325.472 252.644H345.309ZM268.506 343.554V323.237C281.044 320.078 292.336 313.784 301.499 305.238L315.526 319.265C302.704 331.399 286.515 340.012 268.506 343.554ZM247.357 325.476C228.496 324.827 211.392 317.262 198.502 305.238L184.475 319.265C200.964 334.87 223.022 344.65 247.357 345.313V325.476ZM343.549 231.494H323.232C320.073 218.958 313.78 207.667 305.234 198.506L319.261 184.478C331.395 197.299 340.007 213.487 343.549 231.494ZM288.691 185.138C282.484 181.428 275.7 178.583 268.506 176.771V156.454C281.087 158.929 292.779 163.878 303.056 170.773L288.691 185.138ZM247.357 174.532C234.21 174.985 221.917 178.797 211.309 185.138L196.944 170.773C211.429 161.054 228.726 155.202 247.357 154.695V174.532ZM180.74 184.478L194.767 198.505C186.221 207.667 179.927 218.958 176.768 231.494H156.451C159.994 213.487 168.606 197.299 180.74 184.478ZM154.691 252.644H174.528C174.98 265.792 178.793 278.086 185.134 288.695L170.769 303.06C161.05 288.575 155.198 271.276 154.691 252.644ZM170.45 333.289C190.534 352.478 217.547 364.475 247.357 365.147V384.983C212.072 384.305 180.101 370.09 156.424 347.316L170.45 333.289ZM343.577 347.316C323.503 366.624 297.468 379.78 268.506 383.75V363.698C291.99 359.905 313.096 349.011 329.551 333.289L343.577 347.316ZM156.526 317.303L142.347 331.483C125.676 309.491 115.589 282.233 115.022 252.644H134.858C135.4 276.755 143.352 299.038 156.526 317.303ZM136.308 231.494H116.255C120.226 202.534 133.381 176.501 152.689 156.428L166.715 170.454C150.995 186.907 140.101 208.012 136.308 231.494Z" fill="#4D61FF"/>
<path d="M347.312 156.427L333.286 170.454C349.006 186.907 359.899 208.012 363.693 231.494H383.746C379.775 202.534 366.619 176.501 347.312 156.427Z" fill="#4D61FF"/>
<path d="M384.979 252.644H365.143C364.601 276.755 356.649 299.038 343.475 317.303L357.654 331.483C374.325 309.491 384.412 282.233 384.979 252.644Z" fill="#4D61FF"/>
</svg>
